ffmpeg version 2.8.11-0ubuntu0.16.04.1 Copyright (c) 2000-2017 the FFmpeg developers
  built with gcc 5.4.0 (Ubuntu 5.4.0-6ubuntu1~16.04.4) 20160609
  configuration: --prefix=/usr --extra-version=0ubuntu0.16.04.1 --build-suffix=-ffmpeg --toolchain=hardened --libdir=/usr/lib/x86_64-linux-gnu --incdir=/usr/include/x86_64-linux-gnu --cc=cc --cxx=g++ --enable-gpl --enable-shared --disable-stripping --disable-decoder=libopenjpeg --disable-decoder=libschroedinger --enable-avresample --enable-avisynth --enable-gnutls --enable-ladspa --enable-libass --enable-libbluray --enable-libbs2b --enable-libcaca --enable-libcdio --enable-libflite --enable-libfontconfig --enable-libfreetype --enable-libfribidi --enable-libgme --enable-libgsm --enable-libmodplug --enable-libmp3lame --enable-libopenjpeg --enable-libopus --enable-libpulse --enable-librtmp --enable-libschroedinger --enable-libshine --enable-libsnappy --enable-libsoxr --enable-libspeex --enable-libssh --enable-libtheora --enable-libtwolame --enable-libvorbis --enable-libvpx --enable-libwavpack --enable-libwebp --enable-libx265 --enable-libxvid --enable-libzvbi --enable-openal --enable-opengl --enable-x11grab --enable-libdc1394 --enable-libiec61883 --enable-libzmq --enable-frei0r --enable-libx264 --enable-libopencv
  libavutil      54. 31.100 / 54. 31.100
  libavcodec     56. 60.100 / 56. 60.100
  libavformat    56. 40.101 / 56. 40.101
  libavdevice    56.  4.100 / 56.  4.100
  libavfilter     5. 40.101 /  5. 40.101
  libavresample   2.  1.  0 /  2.  1.  0
  libswscale      3.  1.101 /  3.  1.101
  libswresample   1.  2.101 /  1.  2.101
  libpostproc    53.  3.100 / 53.  3.100
Input #0, rawvideo, from 'pipe:':
  Duration: N/A, start: 0.000000, bitrate: 174960 kb/s
    Stream #0:0: Video: rawvideo (RGB[24] / 0x18424752), rgb24, 720x405, 174960 kb/s, 25 tbr, 25 tbn, 25 tbc
No pixel format specified, yuv444p for H.264 encoding chosen.
Use -pix_fmt yuv420p for compatibility with outdated media players.
[libx264 @ 0x1dd8440] using cpu capabilities: MMX2 SSE2Fast SSSE3 SSE4.2 AVX FMA3 AVX2 LZCNT BMI2
[libx264 @ 0x1dd8440] profile High 4:4:4 Predictive, level 3.0, 4:4:4 8-bit
[libx264 @ 0x1dd8440] 264 - core 148 r2643 5c65704 - H.264/MPEG-4 AVC codec - Copyleft 2003-2015 - http://www.videolan.org/x264.html - options: cabac=1 ref=3 deblock=1:0:0 analyse=0x3:0x113 me=hex subme=7 psy=1 psy_rd=1.00:0.00 mixed_ref=1 me_range=16 chroma_me=1 trellis=1 8x8dct=1 cqm=0 deadzone=21,11 fast_pskip=1 chroma_qp_offset=4 threads=6 lookahead_threads=1 sliced_threads=0 nr=0 decimate=1 interlaced=0 bluray_compat=0 constrained_intra=0 bframes=3 b_pyramid=2 b_adapt=1 b_bias=0 direct=1 weightb=1 open_gop=0 weightp=2 keyint=250 keyint_min=25 scenecut=40 intra_refresh=0 rc_lookahead=40 rc=crf mbtree=1 crf=23.0 qcomp=0.60 qpmin=0 qpmax=69 qpstep=4 ip_ratio=1.40 aq=1:1.00
Output #0, mp4, to 'project_video_out.mp4':
  Metadata:
    encoder         : Lavf56.40.101
    Stream #0:0: Video: h264 (libx264) ([33][0][0][0] / 0x0021), yuv444p, 720x405, q=-1--1, 25 fps, 12800 tbn, 25 tbc
    Metadata:
      encoder         : Lavc56.60.100 libx264
Stream mapping:
  Stream #0:0 -> #0:0 (rawvideo (native) -> h264 (libx264))
frame=    5 fps=0.0 q=0.0 size=       0kB time=00:00:00.00 bitrate=N/A    frame=    9 fps=8.2 q=0.0 size=       0kB time=00:00:00.00 bitrate=N/A    frame=   13 fps=7.2 q=0.0 size=       0kB time=00:00:00.00 bitrate=N/A    frame=   16 fps=6.7 q=0.0 size=       0kB time=00:00:00.00 bitrate=N/A    frame=   20 fps=6.6 q=0.0 size=       0kB time=00:00:00.00 bitrate=N/A    frame=   23 fps=6.4 q=0.0 size=       0kB time=00:00:00.00 bitrate=N/A    frame=   26 fps=6.2 q=0.0 size=       0kB time=00:00:00.00 bitrate=N/A    frame=   29 fps=6.1 q=0.0 size=       0kB time=00:00:00.00 bitrate=N/A    frame=   32 fps=6.0 q=0.0 size=       0kB time=00:00:00.00 bitrate=N/A    frame=   36 fps=6.1 q=0.0 size=       0kB time=00:00:00.00 bitrate=N/A    frame=   39 fps=6.0 q=0.0 size=       0kB time=00:00:00.00 bitrate=N/A    frame=   42 fps=6.0 q=0.0 size=       0kB time=00:00:00.00 bitrate=N/A    frame=   45 fps=5.9 q=0.0 size=       0kB time=00:00:00.00 bitrate=N/A    frame=   48 fps=5.9 q=0.0 size=       0kB time=00:00:00.00 bitrate=N/A    frame=   51 fps=5.8 q=28.0 size=      15kB time=-00:00:00.04 bitrate=N/A    frame=   54 fps=5.8 q=28.0 size=      29kB time=00:00:00.08 bitrate=2956.0kbits/s    frame=   57 fps=5.8 q=28.0 size=      38kB time=00:00:00.20 bitrate=1553.8kbits/s    frame=   60 fps=5.8 q=28.0 size=      51kB time=00:00:00.32 bitrate=1297.8kbits/s    frame=   63 fps=5.7 q=28.0 size=      60kB time=00:00:00.44 bitrate=1111.9kbits/s    frame=   66 fps=5.7 q=28.0 size=      73kB time=00:00:00.56 bitrate=1067.2kbits/s    frame=   69 fps=5.7 q=28.0 size=      82kB time=00:00:00.68 bitrate= 985.0kbits/s    frame=   72 fps=5.6 q=28.0 size=      96kB time=00:00:00.80 bitrate= 978.0kbits/s    frame=   75 fps=5.6 q=28.0 size=     106kB time=00:00:00.92 bitrate= 940.2kbits/s    frame=   79 fps=5.6 q=28.0 size=     121kB time=00:00:01.08 bitrate= 920.6kbits/s    frame=   82 fps=5.6 q=28.0 size=     136kB time=00:00:01.20 bitrate= 926.1kbits/s    frame=   85 fps=5.6 q=28.0 size=     145kB time=00:00:01.32 bitrate= 901.1kbits/s    frame=   89 fps=5.6 q=28.0 size=     161kB time=00:00:01.48 bitrate= 892.7kbits/s    frame=   92 fps=5.6 q=28.0 size=     175kB time=00:00:01.60 bitrate= 893.6kbits/s    frame=   95 fps=5.6 q=28.0 size=     184kB time=00:00:01.72 bitrate= 874.9kbits/s    frame=   99 fps=5.6 q=28.0 size=     198kB time=00:00:01.88 bitrate= 863.0kbits/s    frame=  102 fps=5.6 q=28.0 size=     211kB time=00:00:02.00 bitrate= 866.3kbits/s    frame=  105 fps=5.6 q=28.0 size=     221kB time=00:00:02.12 bitrate= 852.9kbits/s    frame=  108 fps=5.6 q=28.0 size=     233kB time=00:00:02.24 bitrate= 850.7kbits/s    frame=  111 fps=5.6 q=28.0 size=     242kB time=00:00:02.36 bitrate= 839.1kbits/s    frame=  114 fps=5.6 q=28.0 size=     254kB time=00:00:02.48 bitrate= 838.2kbits/s    frame=  118 fps=5.6 q=28.0 size=     267kB time=00:00:02.64 bitrate= 828.5kbits/s    frame=  121 fps=5.6 q=28.0 size=     275kB time=00:00:02.76 bitrate= 816.9kbits/s    frame=  124 fps=5.6 q=28.0 size=     287kB time=00:00:02.88 bitrate= 815.2kbits/s    frame=  128 fps=5.6 q=28.0 size=     301kB time=00:00:03.04 bitrate= 810.4kbits/s    frame=  131 fps=5.6 q=28.0 size=     309kB time=00:00:03.16 bitrate= 802.2kbits/s    frame=  135 fps=5.6 q=28.0 size=     323kB time=00:00:03.32 bitrate= 797.0kbits/s    frame=  139 fps=5.6 q=28.0 size=     337kB time=00:00:03.48 bitrate= 792.7kbits/s    frame=  142 fps=5.6 q=28.0 size=     349kB time=00:00:03.60 bitrate= 793.9kbits/s    frame=  145 fps=5.6 q=28.0 size=     361kB time=00:00:03.72 bitrate= 795.0kbits/s    frame=  148 fps=5.6 q=28.0 size=     369kB time=00:00:03.84 bitrate= 786.9kbits/s    frame=  151 fps=5.6 q=28.0 size=     381kB time=00:00:03.96 bitrate= 787.4kbits/s    frame=  154 fps=5.5 q=28.0 size=     389kB time=00:00:04.08 bitrate= 781.0kbits/s    frame=  157 fps=5.5 q=28.0 size=     401kB time=00:00:04.20 bitrate= 783.0kbits/s    frame=  160 fps=5.5 q=28.0 size=     410kB time=00:00:04.32 bitrate= 776.6kbits/s    frame=  163 fps=5.5 q=28.0 size=     422kB time=00:00:04.44 bitrate= 777.8kbits/s    frame=  166 fps=5.5 q=28.0 size=     430kB time=00:00:04.56 bitrate= 773.4kbits/s    frame=  169 fps=5.5 q=28.0 size=     443kB time=00:00:04.68 bitrate= 774.6kbits/s    frame=  173 fps=5.5 q=28.0 size=     457kB time=00:00:04.84 bitrate= 773.7kbits/s    frame=  176 fps=5.5 q=28.0 size=     466kB time=00:00:04.96 bitrate= 769.4kbits/s    frame=  179 fps=5.5 q=28.0 size=     478kB time=00:00:05.08 bitrate= 770.9kbits/s    frame=  182 fps=5.4 q=28.0 size=     487kB time=00:00:05.20 bitrate= 767.0kbits/s    frame=  185 fps=5.4 q=28.0 size=     499kB time=00:00:05.32 bitrate= 768.2kbits/s    frame=  188 fps=5.4 q=28.0 size=     507kB time=00:00:05.44 bitrate= 764.2kbits/s    frame=  191 fps=5.4 q=28.0 size=     520kB time=00:00:05.56 bitrate= 765.8kbits/s    frame=  194 fps=5.4 q=28.0 size=     529kB time=00:00:05.68 bitrate= 762.8kbits/s    frame=  197 fps=5.4 q=28.0 size=     541kB time=00:00:05.80 bitrate= 764.8kbits/s    frame=  201 fps=5.5 q=28.0 size=     557kB time=00:00:05.96 bitrate= 765.3kbits/s    frame=  204 fps=5.5 q=28.0 size=     567kB time=00:00:06.08 bitrate= 763.4kbits/s    frame=  207 fps=5.5 q=28.0 size=     580kB time=00:00:06.20 bitrate= 765.7kbits/s    frame=  210 fps=5.5 q=28.0 size=     588kB time=00:00:06.32 bitrate= 762.2kbits/s    frame=  214 fps=5.5 q=28.0 size=     602kB time=00:00:06.48 bitrate= 761.5kbits/s    frame=  217 fps=5.5 q=28.0 size=     611kB time=00:00:06.60 bitrate= 758.4kbits/s    frame=  221 fps=5.5 q=28.0 size=     624kB time=00:00:06.76 bitrate= 756.6kbits/s    frame=  224 fps=5.5 q=28.0 size=     636kB time=00:00:06.88 bitrate= 757.0kbits/s    frame=  228 fps=5.5 q=28.0 size=     649kB time=00:00:07.04 bitrate= 755.5kbits/s    frame=  232 fps=5.5 q=28.0 size=     663kB time=00:00:07.20 bitrate= 754.7kbits/s    frame=  235 fps=5.5 q=28.0 size=     672kB time=00:00:07.32 bitrate= 752.2kbits/s    frame=  238 fps=5.5 q=28.0 size=     684kB time=00:00:07.44 bitrate= 753.4kbits/s    frame=  242 fps=5.5 q=28.0 size=     698kB time=00:00:07.60 bitrate= 752.5kbits/s    frame=  245 fps=5.5 q=28.0 size=     706kB time=00:00:07.72 bitrate= 749.4kbits/s    frame=  248 fps=5.5 q=28.0 size=     719kB time=00:00:07.84 bitrate= 751.2kbits/s    frame=  251 fps=5.5 q=28.0 size=     727kB time=00:00:07.96 bitrate= 748.5kbits/s    frame=  254 fps=5.5 q=28.0 size=     740kB time=00:00:08.08 bitrate= 750.0kbits/s    frame=  257 fps=5.5 q=28.0 size=     748kB time=00:00:08.20 bitrate= 747.4kbits/s    frame=  261 fps=5.5 q=28.0 size=     763kB time=00:00:08.36 bitrate= 747.5kbits/s    frame=  264 fps=5.5 q=28.0 size=     775kB time=00:00:08.48 bitrate= 748.3kbits/s    frame=  267 fps=5.5 q=28.0 size=     783kB time=00:00:08.60 bitrate= 746.1kbits/s    frame=  271 fps=5.5 q=28.0 size=     798kB time=00:00:08.76 bitrate= 746.0kbits/s    frame=  274 fps=5.5 q=28.0 size=     811kB time=00:00:08.88 bitrate= 748.1kbits/s    frame=  277 fps=5.5 q=28.0 size=     820kB time=00:00:09.00 bitrate= 746.8kbits/s    frame=  280 fps=5.5 q=28.0 size=     834kB time=00:00:09.12 bitrate= 749.2kbits/s    frame=  284 fps=5.5 q=28.0 size=     850kB time=00:00:09.28 bitrate= 749.9kbits/s    frame=  287 fps=5.5 q=28.0 size=     858kB time=00:00:09.40 bitrate= 748.1kbits/s    frame=  290 fps=5.5 q=28.0 size=     874kB time=00:00:09.52 bitrate= 751.8kbits/s    frame=  293 fps=5.5 q=28.0 size=     883kB time=00:00:09.64 bitrate= 750.7kbits/s    frame=  296 fps=5.5 q=25.0 size=     898kB time=00:00:09.76 bitrate= 754.1kbits/s    frame=  299 fps=5.5 q=28.0 size=     906kB time=00:00:09.88 bitrate= 750.8kbits/s    frame=  302 fps=5.5 q=28.0 size=     936kB time=00:00:10.00 bitrate= 766.6kbits/s    frame=  305 fps=5.5 q=28.0 size=     945kB time=00:00:10.12 bitrate= 764.6kbits/s    frame=  309 fps=5.5 q=28.0 size=     960kB time=00:00:10.28 bitrate= 765.0kbits/s    frame=  312 fps=5.5 q=28.0 size=     975kB time=00:00:10.40 bitrate= 767.7kbits/s    frame=  315 fps=5.5 q=28.0 size=     984kB time=00:00:10.52 bitrate= 766.5kbits/s    frame=  318 fps=5.5 q=28.0 size=     998kB time=00:00:10.64 bitrate= 768.6kbits/s    frame=  321 fps=5.5 q=28.0 size=    1008kB time=00:00:10.76 bitrate= 767.7kbits/s    frame=  324 fps=5.5 q=28.0 size=    1023kB time=00:00:10.88 bitrate= 770.5kbits/s    frame=  327 fps=5.4 q=28.0 size=    1033kB time=00:00:11.00 bitrate= 769.6kbits/s    frame=  331 fps=5.5 q=28.0 size=    1051kB time=00:00:11.16 bitrate= 771.2kbits/s    frame=  334 fps=5.5 q=28.0 size=    1061kB time=00:00:11.28 bitrate= 770.3kbits/s    frame=  337 fps=5.5 q=28.0 size=    1070kB time=00:00:11.40 bitrate= 768.9kbits/s    frame=  340 fps=5.4 q=28.0 size=    1080kB time=00:00:11.52 bitrate= 767.8kbits/s    frame=  343 fps=5.5 q=28.0 size=    1093kB time=00:00:11.64 bitrate= 769.2kbits/s    frame=  347 fps=5.5 q=28.0 size=    1108kB time=00:00:11.80 bitrate= 769.0kbits/s    frame=  351 fps=5.5 q=28.0 size=    1123kB time=00:00:11.96 bitrate= 769.5kbits/s    frame=  354 fps=5.5 q=28.0 size=    1132kB time=00:00:12.08 bitrate= 768.0kbits/s    frame=  357 fps=5.5 q=28.0 size=    1142kB time=00:00:12.20 bitrate= 767.0kbits/s    frame=  360 fps=5.5 q=28.0 size=    1152kB time=00:00:12.32 bitrate= 766.2kbits/s    frame=  364 fps=5.5 q=28.0 size=    1170kB time=00:00:12.48 bitrate= 768.0kbits/s    frame=  367 fps=5.5 q=28.0 size=    1180kB time=00:00:12.60 bitrate= 767.0kbits/s    frame=  370 fps=5.5 q=28.0 size=    1190kB time=00:00:12.72 bitrate= 766.1kbits/s    frame=  374 fps=5.5 q=28.0 size=    1207kB time=00:00:12.88 bitrate= 767.5kbits/s    frame=  377 fps=5.5 q=28.0 size=    1222kB time=00:00:13.00 bitrate= 769.9kbits/s    frame=  380 fps=5.5 q=28.0 size=    1232kB time=00:00:13.12 bitrate= 769.4kbits/s    frame=  383 fps=5.5 q=28.0 size=    1250kB time=00:00:13.24 bitrate= 773.3kbits/s    frame=  386 fps=5.5 q=28.0 size=    1261kB time=00:00:13.36 bitrate= 773.3kbits/s    frame=  389 fps=5.5 q=28.0 size=    1279kB time=00:00:13.48 bitrate= 777.1kbits/s    frame=  392 fps=5.5 q=28.0 size=    1291kB time=00:00:13.60 bitrate= 777.5kbits/s    frame=  395 fps=5.5 q=28.0 size=    1310kB time=00:00:13.72 bitrate= 782.0kbits/s    frame=  398 fps=5.5 q=28.0 size=    1323kB time=00:00:13.84 bitrate= 783.1kbits/s    frame=  401 fps=5.5 q=28.0 size=    1342kB time=00:00:13.96 bitrate= 787.7kbits/s    frame=  405 fps=5.5 q=28.0 size=    1363kB time=00:00:14.12 bitrate= 790.8kbits/s    frame=  408 fps=5.5 q=28.0 size=    1375kB time=00:00:14.24 bitrate= 791.3kbits/s    frame=  412 fps=5.5 q=28.0 size=    1396kB time=00:00:14.40 bitrate= 794.4kbits/s    frame=  415 fps=5.5 q=28.0 size=    1416kB time=00:00:14.52 bitrate= 798.9kbits/s    frame=  419 fps=5.5 q=28.0 size=    1438kB time=00:00:14.68 bitrate= 802.2kbits/s    frame=  422 fps=5.5 q=28.0 size=    1452kB time=00:00:14.80 bitrate= 803.6kbits/s    frame=  425 fps=5.5 q=28.0 size=    1473kB time=00:00:14.92 bitrate= 808.6kbits/s    frame=  428 fps=5.5 q=28.0 size=    1486kB time=00:00:15.04 bitrate= 809.5kbits/s    frame=  431 fps=5.5 q=28.0 size=    1507kB time=00:00:15.16 bitrate= 814.6kbits/s    frame=  434 fps=5.5 q=28.0 size=    1521kB time=00:00:15.28 bitrate= 815.2kbits/s    frame=  437 fps=5.5 q=28.0 size=    1539kB time=00:00:15.40 bitrate= 818.5kbits/s    frame=  440 fps=5.5 q=28.0 size=    1551kB time=00:00:15.52 bitrate= 818.6kbits/s    frame=  443 fps=5.5 q=28.0 size=    1570kB time=00:00:15.64 bitrate= 822.4kbits/s    frame=  447 fps=5.5 q=28.0 size=    1590kB time=00:00:15.80 bitrate= 824.5kbits/s    frame=  450 fps=5.5 q=28.0 size=    1602kB time=00:00:15.92 bitrate= 824.3kbits/s    frame=  454 fps=5.5 q=28.0 size=    1622kB time=00:00:16.08 bitrate= 826.1kbits/s    frame=  458 fps=5.5 q=28.0 size=    1642kB time=00:00:16.24 bitrate= 828.0kbits/s    frame=  461 fps=5.5 q=28.0 size=    1659kB time=00:00:16.36 bitrate= 830.8kbits/s    frame=  464 fps=5.5 q=28.0 size=    1671kB time=00:00:16.48 bitrate= 830.6kbits/s    frame=  468 fps=5.5 q=28.0 size=    1692kB time=00:00:16.64 bitrate= 833.1kbits/s    frame=  472 fps=5.5 q=28.0 size=    1715kB time=00:00:16.80 bitrate= 836.4kbits/s    frame=  475 fps=5.5 q=28.0 size=    1734kB time=00:00:16.92 bitrate= 839.7kbits/s    frame=  478 fps=5.5 q=28.0 size=    1749kB time=00:00:17.04 bitrate= 840.7kbits/s    frame=  481 fps=5.5 q=28.0 size=    1768kB time=00:00:17.16 bitrate= 843.9kbits/s    frame=  484 fps=5.4 q=28.0 size=    1781kB time=00:00:17.28 bitrate= 844.2kbits/s    frame=  487 fps=5.4 q=28.0 size=    1798kB time=00:00:17.40 bitrate= 846.4kbits/s    frame=  490 fps=5.4 q=28.0 size=    1810kB time=00:00:17.52 bitrate= 846.2kbits/s    frame=  493 fps=5.4 q=28.0 size=    1827kB time=00:00:17.64 bitrate= 848.6kbits/s    frame=  496 fps=5.4 q=28.0 size=    1839kB time=00:00:17.76 bitrate= 848.3kbits/s    frame=  499 fps=5.4 q=28.0 size=    1850kB time=00:00:17.88 bitrate= 847.7kbits/s    frame=  502 fps=5.4 q=28.0 size=    1861kB time=00:00:18.00 bitrate= 847.1kbits/s    frame=  506 fps=5.4 q=28.0 size=    1879kB time=00:00:18.16 bitrate= 847.6kbits/s    frame=  510 fps=5.4 q=28.0 size=    1891kB time=00:00:18.32 bitrate= 845.8kbits/s    frame=  513 fps=5.4 q=28.0 size=    1902kB time=00:00:18.44 bitrate= 845.2kbits/s    frame=  516 fps=5.4 q=28.0 size=    1913kB time=00:00:18.56 bitrate= 844.6kbits/s    frame=  519 fps=5.4 q=28.0 size=    1928kB time=00:00:18.68 bitrate= 845.7kbits/s    frame=  522 fps=5.4 q=28.0 size=    1939kB time=00:00:18.80 bitrate= 844.7kbits/s    frame=  525 fps=5.4 q=28.0 size=    1953kB time=00:00:18.92 bitrate= 845.7kbits/s    frame=  528 fps=5.4 q=28.0 size=    1964kB time=00:00:19.04 bitrate= 844.9kbits/s    frame=  531 fps=5.4 q=28.0 size=    1981kB time=00:00:19.16 bitrate= 846.9kbits/s    frame=  534 fps=5.4 q=28.0 size=    1992kB time=00:00:19.28 bitrate= 846.2kbits/s    frame=  538 fps=5.4 q=28.0 size=    2011kB time=00:00:19.44 bitrate= 847.3kbits/s    frame=  541 fps=5.4 q=28.0 size=    2028kB time=00:00:19.56 bitrate= 849.4kbits/s    frame=  544 fps=5.4 q=28.0 size=    2040kB time=00:00:19.68 bitrate= 849.3kbits/s    frame=  548 fps=5.4 q=28.0 size=    2065kB time=00:00:19.84 bitrate= 852.5kbits/s    frame=  551 fps=5.4 q=28.0 size=    2098kB time=00:00:19.96 bitrate= 861.2kbits/s    frame=  554 fps=5.4 q=28.0 size=    2120kB time=00:00:20.08 bitrate= 864.7kbits/s    frame=  557 fps=5.4 q=28.0 size=    2136kB time=00:00:20.20 bitrate= 866.1kbits/s    frame=  560 fps=5.4 q=28.0 size=    2157kB time=00:00:20.32 bitrate= 869.6kbits/s    frame=  563 fps=5.4 q=28.0 size=    2189kB time=00:00:20.44 bitrate= 877.5kbits/s    frame=  566 fps=5.4 q=28.0 size=    2212kB time=00:00:20.56 bitrate= 881.4kbits/s    frame=  570 fps=5.4 q=28.0 size=    2252kB time=00:00:20.72 bitrate= 890.3kbits/s    frame=  573 fps=5.4 q=28.0 size=    2285kB time=00:00:20.84 bitrate= 898.1kbits/s    frame=  576 fps=5.4 q=28.0 size=    2312kB time=00:00:20.96 bitrate= 903.5kbits/s    frame=  579 fps=5.4 q=28.0 size=    2347kB time=00:00:21.08 bitrate= 912.1kbits/s    frame=  582 fps=5.4 q=28.0 size=    2376kB time=00:00:21.20 bitrate= 918.0kbits/s    frame=  585 fps=5.4 q=28.0 size=    2410kB time=00:00:21.32 bitrate= 926.0kbits/s    frame=  588 fps=5.4 q=28.0 size=    2438kB time=00:00:21.44 bitrate= 931.4kbits/s    frame=  591 fps=5.4 q=28.0 size=    2471kB time=00:00:21.56 bitrate= 939.0kbits/s    frame=  594 fps=5.4 q=28.0 size=    2494kB time=00:00:21.68 bitrate= 942.5kbits/s    frame=  597 fps=5.4 q=28.0 size=    2519kB time=00:00:21.80 bitrate= 946.6kbits/s    frame=  599 fps=5.4 q=28.0 size=    2533kB time=00:00:21.88 bitrate= 948.2kbits/s    frame=  602 fps=5.4 q=28.0 size=    2551kB time=00:00:22.00 bitrate= 949.9kbits/s    frame=  604 fps=5.4 q=28.0 size=    2566kB time=00:00:22.08 bitrate= 952.0kbits/s    frame=  607 fps=5.4 q=28.0 size=    2592kB time=00:00:22.20 bitrate= 956.4kbits/s    frame=  611 fps=5.4 q=28.0 size=    2623kB time=00:00:22.36 bitrate= 960.8kbits/s    frame=  614 fps=5.4 q=28.0 size=    2643kB time=00:00:22.48 bitrate= 963.3kbits/s    frame=  617 fps=5.4 q=28.0 size=    2667kB time=00:00:22.60 bitrate= 966.9kbits/s    frame=  620 fps=5.4 q=28.0 size=    2684kB time=00:00:22.72 bitrate= 967.9kbits/s    frame=  623 fps=5.4 q=28.0 size=    2708kB time=00:00:22.84 bitrate= 971.1kbits/s    frame=  626 fps=5.4 q=28.0 size=    2725kB time=00:00:22.96 bitrate= 972.4kbits/s    frame=  629 fps=5.4 q=28.0 size=    2747kB time=00:00:23.08 bitrate= 974.9kbits/s    frame=  632 fps=5.3 q=28.0 size=    2763kB time=00:00:23.20 bitrate= 975.7kbits/s    frame=  635 fps=5.3 q=28.0 size=    2784kB time=00:00:23.32 bitrate= 977.9kbits/s    frame=  638 fps=5.3 q=28.0 size=    2800kB time=00:00:23.44 bitrate= 978.5kbits/s    frame=  641 fps=5.3 q=28.0 size=    2820kB time=00:00:23.56 bitrate= 980.6kbits/s    frame=  644 fps=5.3 q=28.0 size=    2835kB time=00:00:23.68 bitrate= 980.9kbits/s    frame=  647 fps=5.3 q=28.0 size=    2856kB time=00:00:23.80 bitrate= 982.9kbits/s    frame=  650 fps=5.3 q=28.0 size=    2870kB time=00:00:23.92 bitrate= 982.9kbits/s    frame=  653 fps=5.3 q=28.0 size=    2890kB time=00:00:24.04 bitrate= 984.7kbits/s    frame=  657 fps=5.4 q=28.0 size=    2912kB time=00:00:24.20 bitrate= 985.9kbits/s    frame=  660 fps=5.3 q=28.0 size=    2927kB time=00:00:24.32 bitrate= 986.1kbits/s    frame=  663 fps=5.3 q=28.0 size=    2949kB time=00:00:24.44 bitrate= 988.5kbits/s    frame=  666 fps=5.3 q=28.0 size=    2965kB time=00:00:24.56 bitrate= 989.1kbits/s    frame=  669 fps=5.3 q=28.0 size=    2990kB time=00:00:24.68 bitrate= 992.3kbits/s    frame=  672 fps=5.3 q=28.0 size=    3014kB time=00:00:24.80 bitrate= 995.5kbits/s    frame=  675 fps=5.3 q=28.0 size=    3036kB time=00:00:24.92 bitrate= 997.9kbits/s    frame=  678 fps=5.3 q=28.0 size=    3063kB time=00:00:25.04 bitrate=1001.9kbits/s    frame=  682 fps=5.3 q=28.0 size=    3096kB time=00:00:25.20 bitrate=1006.4kbits/s    frame=  685 fps=5.3 q=28.0 size=    3116kB time=00:00:25.32 bitrate=1008.3kbits/s    frame=  688 fps=5.3 q=28.0 size=    3143kB time=00:00:25.44 bitrate=1012.2kbits/s    frame=  691 fps=5.3 q=28.0 size=    3164kB time=00:00:25.56 bitrate=1014.1kbits/s    frame=  694 fps=5.3 q=28.0 size=    3186kB time=00:00:25.68 bitrate=1016.4kbits/s    frame=  697 fps=5.4 q=28.0 size=    3200kB time=00:00:25.80 bitrate=1016.0kbits/s    frame=  700 fps=5.4 q=28.0 size=    3214kB time=00:00:25.92 bitrate=1015.8kbits/s    frame=  703 fps=5.3 q=28.0 size=    3223kB time=00:00:26.04 bitrate=1014.0kbits/s    frame=  706 fps=5.3 q=28.0 size=    3235kB time=00:00:26.16 bitrate=1013.2kbits/s    frame=  710 fps=5.4 q=28.0 size=    3250kB time=00:00:26.32 bitrate=1011.5kbits/s    frame=  713 fps=5.4 q=28.0 size=    3258kB time=00:00:26.44 bitrate=1009.5kbits/s    frame=  716 fps=5.3 q=28.0 size=    3267kB time=00:00:26.56 bitrate=1007.5kbits/s    frame=  719 fps=5.3 q=28.0 size=    3275kB time=00:00:26.68 bitrate=1005.7kbits/s    frame=  722 fps=5.3 q=28.0 size=    3284kB time=00:00:26.80 bitrate=1003.8kbits/s    frame=  725 fps=5.3 q=28.0 size=    3292kB time=00:00:26.92 bitrate=1001.8kbits/s    frame=  728 fps=5.3 q=28.0 size=    3301kB time=00:00:27.04 bitrate= 999.9kbits/s    frame=  732 fps=5.4 q=28.0 size=    3315kB time=00:00:27.20 bitrate= 998.4kbits/s    frame=  736 fps=5.4 q=28.0 size=    3325kB time=00:00:27.36 bitrate= 995.5kbits/s    frame=  739 fps=5.4 q=28.0 size=    3334kB time=00:00:27.48 bitrate= 993.8kbits/s    frame=  742 fps=5.4 q=28.0 size=    3343kB time=00:00:27.60 bitrate= 992.3kbits/s    frame=  745 fps=5.4 q=28.0 size=    3352kB time=00:00:27.72 bitrate= 990.5kbits/s    frame=  748 fps=5.4 q=28.0 size=    3360kB time=00:00:27.84 bitrate= 988.8kbits/s    frame=  751 fps=5.4 q=28.0 size=    3370kB time=00:00:27.96 bitrate= 987.3kbits/s    frame=  755 fps=5.4 q=28.0 size=    3384kB time=00:00:28.12 bitrate= 985.9kbits/s    frame=  755 fps=1.1 q=28.0 size=    3384kB time=00:00:28.12 bitrate= 985.9kbits/s    frame=  755 fps=1.1 q=-1.0 Lsize=    3598kB time=00:00:30.12 bitrate= 978.7kbits/s    
video:3589kB audio:0kB subtitle:0kB other streams:0kB global headers:0kB muxing overhead: 0.269861%
[libx264 @ 0x1dd8440] frame I:4     Avg QP:22.32  size: 23179
[libx264 @ 0x1dd8440] frame P:363   Avg QP:24.25  size:  7397
[libx264 @ 0x1dd8440] frame B:388   Avg QP:27.01  size:  2310
[libx264 @ 0x1dd8440] consecutive B-frames:  1.7% 84.8% 13.5%  0.0%
[libx264 @ 0x1dd8440] mb I  I16..4: 23.2% 50.4% 26.4%
[libx264 @ 0x1dd8440] mb P  I16..4:  2.4%  2.5%  0.9%  P16..4: 37.5% 18.6%  9.4%  0.0%  0.0%    skip:28.6%
[libx264 @ 0x1dd8440] mb B  I16..4:  0.1%  0.2%  0.1%  B16..8: 41.0%  7.0%  1.6%  direct: 1.5%  skip:48.6%  L0:36.0% L1:56.3% BI: 7.7%
[libx264 @ 0x1dd8440] 8x8 transform intra:44.7% inter:66.2%
[libx264 @ 0x1dd8440] coded y,u,v intra: 46.3% 14.8% 16.3% inter: 17.3% 3.4% 2.8%
[libx264 @ 0x1dd8440] i16 v,h,dc,p:  1% 56%  9% 34%
[libx264 @ 0x1dd8440] i8 v,h,dc,ddl,ddr,vr,hd,vl,hu:  8% 26% 25%  5%  6%  5% 11%  4% 10%
[libx264 @ 0x1dd8440] i4 v,h,dc,ddl,ddr,vr,hd,vl,hu: 11% 30% 20%  5%  6%  4% 13%  4%  7%
[libx264 @ 0x1dd8440] Weighted P-Frames: Y:3.0% UV:0.0%
[libx264 @ 0x1dd8440] ref P L0: 59.4% 15.7% 15.4%  9.3%  0.1%
[libx264 @ 0x1dd8440] ref B L0: 82.1% 17.1%  0.8%
[libx264 @ 0x1dd8440] ref B L1: 97.9%  2.1%
[libx264 @ 0x1dd8440] kb/s:973.29
